<svg width="263" height="112" viewBox="0 0 263 112" fill="none" xmlns="http://www.w3.org/2000/svg">
<g clip-path="url(#clip0_104_9)">
<path d="M0 6C0 2.68629 2.68629 0 6 0H194C197.314 0 200 2.68629 200 6V42C200 45.3137 197.314 48 194 48H5.99999C2.68629 48 0 45.3137 0 42V6Z" fill="white"/>
<rect width="50" height="100" fill="#EAB875"/>
<rect x="50" width="50" height="100" fill="#E1C7A5"/>
<rect x="100" width="50" height="100" fill="#D3E3E2"/>
<rect x="150" width="50" height="100" fill="#7BC5C1"/>
</g>
<g clip-path="url(#clip1_104_9)">
<path d="M20 25C20 21.6863 22.6863 19 26 19H214C217.314 19 220 21.6863 220 25V62C220 65.3137 217.314 68 214 68H26C22.6863 68 20 65.3137 20 62V25Z" fill="white"/>
<rect x="20" y="19" width="50" height="100" fill="#FF6D00"/>
<rect x="70" y="19" width="50" height="100" fill="#FF9201"/>
<rect x="120" y="19" width="50" height="100" fill="#FFAB41"/>
<rect x="170" y="19" width="50" height="100" fill="#FFD181"/>
</g>
<g clip-path="url(#clip2_104_9)">
<path d="M41 45C41 41.6863 43.6863 39 47 39H235C238.314 39 241 41.6863 241 45V80C241 83.3137 238.314 86 235 86H47C43.6863 86 41 83.3137 41 80V45Z" fill="white"/>
<rect x="41" y="39" width="50" height="100" fill="#004581"/>
<rect x="91" y="39" width="50" height="100" fill="#018ABD"/>
<rect x="141" y="39" width="50" height="100" fill="#97CBDC"/>
<rect x="191" y="39" width="50" height="100" fill="#DDE8F0"/>
</g>
<g clip-path="url(#clip3_104_9)">
<path d="M61 68C61 64.6863 63.6863 62 67 62H257C260.314 62 263 64.6863 263 68V106C263 109.314 260.314 112 257 112H67C63.6863 112 61 109.314 61 106V68Z" fill="white"/>
<rect x="61" y="62" width="50" height="100" fill="#3D7C98"/>
<rect x="111" y="62" width="50" height="100" fill="#73B0CD"/>
<rect x="161" y="62" width="50" height="100" fill="#A8DFF1"/>
<rect x="211" y="62" width="50" height="100" fill="#F5F5F5"/>
</g>
<defs>
<clipPath id="clip0_104_9">
<path d="M0 6C0 2.68629 2.68629 0 6 0H194C197.314 0 200 2.68629 200 6V42C200 45.3137 197.314 48 194 48H5.99999C2.68629 48 0 45.3137 0 42V6Z" fill="white"/>
</clipPath>
<clipPath id="clip1_104_9">
<path d="M20 25C20 21.6863 22.6863 19 26 19H214C217.314 19 220 21.6863 220 25V62C220 65.3137 217.314 68 214 68H26C22.6863 68 20 65.3137 20 62V25Z" fill="white"/>
</clipPath>
<clipPath id="clip2_104_9">
<path d="M41 45C41 41.6863 43.6863 39 47 39H235C238.314 39 241 41.6863 241 45V80C241 83.3137 238.314 86 235 86H47C43.6863 86 41 83.3137 41 80V45Z" fill="white"/>
</clipPath>
<clipPath id="clip3_104_9">
<path d="M61 68C61 64.6863 63.6863 62 67 62H257C260.314 62 263 64.6863 263 68V106C263 109.314 260.314 112 257 112H67C63.6863 112 61 109.314 61 106V68Z" fill="white"/>
</clipPath>
</defs>
</svg>
